#N canvas 148 225 828 748 12;
#X obj 567 9 inlet;
#X obj 569 62 print Display starting with a;
#N canvas 1061 297 588 477 doRandomFill 0;
#X obj 286 43 inlet;
#X obj 120 245 random 255;
#X obj 239 240 random 255;
#X obj 337 238 random 255;
#X msg 206 341 0 \$1 \$2 \$3 10;
#X obj 229 381 fudiformat;
#X obj 238 426 send sendToController;
#X obj 118 311 pack f f f;
#X obj 288 79 trigger b b b;
#X connect 0 0 8 0;
#X connect 1 0 7 0;
#X connect 2 0 7 1;
#X connect 3 0 7 2;
#X connect 4 0 5 0;
#X connect 5 0 6 0;
#X connect 7 0 4 0;
#X connect 8 0 1 0;
#X connect 8 1 2 0;
#X connect 8 2 3 0;
#X restore 574 147 pd doRandomFill;
#X obj 575 96 receive randomFill;
#X obj 574 170 receive randomBlocks;
#N canvas 181 163 822 695 doRandomBlocks 0;
#X obj 144 8 inlet;
#X obj 63 161 random 255;
#X obj 148 162 random 255;
#X obj 231 160 random 255;
#X obj 124 615 send sendToController;
#X obj 546 195 + 1;
#X obj 391 165 random 7;
#X obj 477 169 random 7;
#X obj 625 193 + 1;
#X obj 145 60 trigger b b b b b b b;
#X obj 124 462 pack f f f f f f f;
#X obj 148 574 fudiformat;
#X msg 152 527 0 \$1 \$2 \$3 10 \$4 \$5 \$6 \$7;
#X obj 547 168 random 3;
#X obj 624 167 random 3;
#X connect 0 0 9 0;
#X connect 1 0 10 0;
#X connect 2 0 10 1;
#X connect 3 0 10 2;
#X connect 5 0 10 5;
#X connect 6 0 10 3;
#X connect 7 0 10 4;
#X connect 8 0 10 6;
#X connect 9 0 1 0;
#X connect 9 1 2 0;
#X connect 9 2 3 0;
#X connect 9 3 6 0;
#X connect 9 4 7 0;
#X connect 9 5 13 0;
#X connect 9 6 14 0;
#X connect 10 0 12 0;
#X connect 11 0 4 0;
#X connect 12 0 11 0;
#X connect 13 0 5 0;
#X connect 14 0 8 0;
#X restore 575 223 pd doRandomBlocks;
#X obj 579 255 receive randomDots;
#N canvas 738 197 853 630 doRandomDots 0;
#X obj 144 8 inlet;
#X obj 63 161 random 255;
#X obj 148 162 random 255;
#X obj 231 160 random 255;
#X obj 141 587 send sendToController;
#X obj 326 160 random 8;
#X obj 406 162 random 8;
#X obj 145 60 trigger b b b b b;
#X obj 124 462 pack f f f f f;
#X msg 143 506 1 \$1 \$2 \$3 4 \$4 \$5;
#X obj 156 539 fudiformat;
#X connect 0 0 7 0;
#X connect 1 0 8 0;
#X connect 2 0 8 1;
#X connect 3 0 8 2;
#X connect 5 0 8 3;
#X connect 6 0 8 4;
#X connect 7 0 1 0;
#X connect 7 1 2 0;
#X connect 7 2 3 0;
#X connect 7 3 5 0;
#X connect 7 4 6 0;
#X connect 8 0 9 0;
#X connect 9 0 10 0;
#X connect 10 0 4 0;
#X restore 581 299 pd doRandomDots;
#X obj 579 199 bng 15 250 50 0 empty empty empty 17 7 0 10 -262144
-1 -1;
#X obj 591 279 bng 15 250 50 0 empty empty empty 17 7 0 10 -262144
-1 -1;
#X obj 287 174 receive displayText;
#X obj 220 50 bng 15 250 50 0 empty empty empty 17 7 0 10 -262144 -1
-1;
#N canvas 518 290 450 300 doDisplayText 0;
#X obj 143 40 inlet;
#X obj 55 224 print;
#X obj 179 111 fudiformat;
#X obj 218 221 send sendToController;
#X connect 0 0 2 0;
#X connect 2 0 1 0;
#X connect 2 0 3 0;
#X restore 206 134 pd doDisplayText;
#X obj 601 121 bng 15 250 50 0 empty empty empty 17 7 0 10 -262144
-1 -1;
#N canvas 56 210 450 300 displayKick 0;
#X obj 33 10 receive kickSound;
#X obj 34 91 bng 15 250 50 0 empty empty empty 17 7 0 10 -262144 -1
-1;
#X obj 131 150 send colFill;
#X obj 94 178 delay 100 1 msec;
#X obj 102 260 send colFill;
#X obj 95 112 pack 255 255 255 1;
#X obj 102 220 pack 0 0 0 5;
#X obj 110 67 spigot;
#X floatatom 212 36 5 0 0 2 kickDisplayEnable kickDisplayEnable -;
#X connect 0 0 7 0;
#X connect 1 0 3 0;
#X connect 1 0 5 0;
#X connect 3 0 6 0;
#X connect 5 0 2 0;
#X connect 6 0 4 0;
#X connect 7 0 1 0;
#X connect 8 0 7 1;
#X restore 24 193 pd displayKick;
#X obj 569 514 receive colFill;
#N canvas 308 168 450 300 doColFill 0;
#X obj 115 148 fudiformat;
#X obj 115 182 send sendToController;
#X msg 114 75 0 \$1 \$2 \$3 \$4;
#X obj 113 12 inlet;
#X connect 0 0 1 0;
#X connect 2 0 0 0;
#X connect 3 0 2 0;
#X restore 568 554 pd doColFill;
#X obj 450 445 pack 0 0 255 10;
#X obj 444 406 bng 15 250 50 0 empty empty empty 17 7 0 10 -262144
-1 -1;
#N canvas 440 352 450 300 displaySnare 0;
#X obj 30 31 receive snareSound;
#X obj 34 142 bng 15 250 50 0 empty empty empty 17 7 0 10 -262144 -1
-1;
#X obj 40 187 send randomBlocks;
#X obj 52 97 spigot;
#X floatatom 114 72 5 0 0 2 snareDisplayEnable snareDisplayEnable -
;
#X connect 0 0 3 0;
#X connect 1 0 2 0;
#X connect 3 0 1 0;
#X connect 4 0 3 1;
#X restore 21 225 pd displaySnare;
#N canvas 227 274 450 300 displayTomTom 0;
#X obj 30 37 receive tomtomSound;
#X obj 34 71 bng 15 250 50 0 empty empty empty 17 7 0 10 -262144 -1
-1;
#X obj 40 116 send randomDots;
#X connect 0 0 1 0;
#X connect 1 0 2 0;
#X restore 21 258 pd displayTomTom;
#N canvas 150 306 450 300 displayRide 0;
#X obj 22 20 receive rideSound;
#X obj 34 71 bng 15 250 50 0 empty empty empty 17 7 0 10 -262144 -1
-1;
#X obj 40 116 send randomDots;
#X connect 0 0 1 0;
#X connect 1 0 2 0;
#X restore 24 295 pd displayRide;
#N canvas 156 236 450 300 displaySplash 0;
#X obj 34 71 bng 15 250 50 0 empty empty empty 17 7 0 10 -262144 -1
-1;
#X obj 136 138 send colFill;
#X obj 94 178 delay 100 1 msec;
#X obj 102 260 send colFill;
#X obj 32 21 receive splashSound;
#X obj 89 95 pack 255 255 255 1;
#X obj 102 220 pack 0 0 0 5;
#X connect 0 0 2 0;
#X connect 0 0 5 0;
#X connect 2 0 6 0;
#X connect 4 0 0 0;
#X connect 5 0 1 0;
#X connect 6 0 3 0;
#X restore 25 327 pd displaySplash;
#N canvas 441 441 450 300 displayClap 0;
#X obj 19 19 receive clapSound;
#X obj 141 587 send sendToController;
#X obj 156 539 fudiformat;
#X obj 151 597 send sendToController;
#X obj 166 549 fudiformat;
#X obj 161 607 send sendToController;
#X obj 176 559 fudiformat;
#X obj 171 617 send sendToController;
#X obj 186 569 fudiformat;
#X obj 70 166 fudiformat;
#X obj 70 200 send sendToController;
#X msg 69 122 0 0 255 255 5 2 2 4 4;
#X connect 0 0 11 0;
#X connect 2 0 1 0;
#X connect 4 0 3 0;
#X connect 6 0 5 0;
#X connect 8 0 7 0;
#X connect 9 0 10 0;
#X connect 11 0 9 0;
#X restore 26 363 pd displayClap;
#N canvas 560 216 450 300 displayCowbell 0;
#X obj 67 32 receive cowbellSound;
#X obj 34 71 bng 15 250 50 0 empty empty empty 17 7 0 10 -262144 -1
-1;
#X obj 136 138 send colFill;
#X obj 94 178 delay 100 1 msec;
#X obj 132 261 fudiformat;
#X obj 132 295 send sendToController;
#X msg 131 217 0 0 255 255 5 2 2 4 4;
#X obj 89 95 pack 255 255 0 1;
#X connect 0 0 1 0;
#X connect 1 0 3 0;
#X connect 1 0 7 0;
#X connect 3 0 6 0;
#X connect 4 0 5 0;
#X connect 6 0 4 0;
#X connect 7 0 2 0;
#X restore 25 394 pd displayCowbell;
#N canvas 444 217 573 443 screenSaver 0;
#X obj 225 16 inlet;
#X obj 309 146 print screensaver \$1;
#X obj 47 239 tgl 15 0 empty empty empty 17 7 0 10 -262144 -1 -1 1
1;
#X obj 72 308 bng 15 250 50 0 empty empty empty 17 7 0 10 -262144 -1
-1;
#X obj 194 233 tgl 15 0 empty empty empty 17 7 0 10 -262144 -1 -1 1
1;
#X obj 234 298 bng 15 250 50 0 empty empty empty 17 7 0 10 -262144
-1 -1;
#X obj 33 339 send randomFill;
#X obj 159 336 send randomBlocks;
#X obj 44 275 metro 2000;
#X obj 194 253 metro 400;
#X obj 88 158 select 0 1;
#X obj 163 47 / 8;
#X obj 157 80 int;
#X floatatom 109 115 5 0 0 0 - - -;
#X connect 0 0 11 0;
#X connect 2 0 8 0;
#X connect 3 0 6 0;
#X connect 4 0 9 0;
#X connect 5 0 7 0;
#X connect 8 0 3 0;
#X connect 9 0 5 0;
#X connect 10 0 2 0;
#X connect 10 0 9 0;
#X connect 10 1 4 0;
#X connect 10 1 2 0;
#X connect 11 0 12 0;
#X connect 12 0 1 0;
#X connect 12 0 13 0;
#X connect 13 0 10 0;
#X restore 225 285 pd screenSaver;
#X obj 225 243 receive screenSaverSelect;
#N canvas 89 202 450 300 clearBlack 0;
#X obj 140 49 inlet;
#X obj 140 86 pack 0 0 0 5;
#X obj 140 120 send colFill;
#X connect 0 0 1 0;
#X connect 1 0 2 0;
#X restore 588 344 pd clearBlack;
#X obj 45 78 send kickDisplayEnable;
#X obj 24 24 1;
#X obj 15 110 send snareDisplayEnable;
#N canvas 179 241 450 300 displayNote 0;
#X obj 129 89 receive displayNote;
#X obj 139 139 bng 15 250 50 0 empty empty empty 17 7 0 10 -262144
-1 -1;
#X obj 145 184 send randomDots;
#X connect 0 0 1 0;
#X connect 1 0 2 0;
#X restore 187 392 pd displayNote;
#X msg 208 96 2 255 0 0 10 0 0 'Hello World' 1;
#X connect 0 0 1 0;
#X connect 0 0 11 0;
#X connect 3 0 13 0;
#X connect 4 0 8 0;
#X connect 6 0 9 0;
#X connect 8 0 5 0;
#X connect 9 0 7 0;
#X connect 11 0 32 0;
#X connect 11 0 29 0;
#X connect 13 0 2 0;
#X connect 15 0 16 0;
#X connect 17 0 16 0;
#X connect 18 0 17 0;
#X connect 26 0 25 0;
#X connect 29 0 28 0;
#X connect 29 0 30 0;
#X connect 32 0 12 0;
