#N canvas 249 152 646 538 12;
#X obj 119 202 sel 10 13;
#X obj 119 224 t b b;
#X obj 121 307 list;
#X obj 120 364 fudiparse;
#X obj 149 252 list prepend;
#X obj 151 279 t l l;
#X obj 110 5 inlet;
#X msg 386 74 devices;
#X obj 116 411 route encoder button;
#X obj 242 462 send buttonReceived;
#X obj 80 461 send encoderReceived;
#X obj 404 115 receive sendToController;
#X msg 36 81 devicename /dev/ttyAMA1;
#X obj 118 41 trigger b b b;
#X obj 408 183 print;
#X obj 160 163 comport;
#X obj 260 33 print Serial comms starting with a;
#X msg 263 81 baud 19200;
#X obj 508 356 send sendToController;
#X obj 523 308 fudiformat;
#X obj 513 233 bng 15 250 50 0 empty empty empty 17 7 0 10 -262144
-1 -1;
#X msg 510 275 3 2 4;
#X connect 0 0 1 0;
#X connect 0 2 4 0;
#X connect 1 0 2 0;
#X connect 1 1 4 1;
#X connect 2 0 3 0;
#X connect 3 0 8 0;
#X connect 4 0 5 0;
#X connect 5 0 2 1;
#X connect 5 1 4 1;
#X connect 6 0 13 0;
#X connect 6 0 16 0;
#X connect 7 0 15 0;
#X connect 8 0 10 0;
#X connect 8 1 9 0;
#X connect 11 0 14 0;
#X connect 11 0 15 0;
#X connect 12 0 15 0;
#X connect 13 0 12 0;
#X connect 13 1 17 0;
#X connect 13 2 7 0;
#X connect 15 0 0 0;
#X connect 17 0 15 0;
#X connect 19 0 18 0;
#X connect 20 0 21 0;
#X connect 21 0 19 0;
