#N canvas 135 178 1426 645 12;
#X obj 144 61 inlet;
#X msg 119 231 \; pd dsp 1;
#X obj 126 103 bng 15 250 50 0 empty empty empty 17 7 0 10 -262144
-1 -1;
#X obj 191 448 receive outputVolume;
#X obj 953 622 dac~ 1 2;
#X obj 25 376 print Sound output started with a;
#N canvas -123 162 998 435 SoundValuesInit 0;
#X obj 111 15 inlet;
#X obj 71 103 80;
#X obj 73 134 send sine;
#X obj 165 105 0;
#X obj 167 136 send phase;
#X obj 267 106 20;
#X obj 362 138 send decay;
#X obj 269 147 send attack;
#X floatatom 753 200 5 0 0 0 Initial_output_volume - outputVolume;
#X floatatom 750 230 5 0 0 0 fx_send_level - fxSend;
#X floatatom 752 264 5 0 0 2 reverb_liveliness - reverbLiveliness;
#X obj 536 115 101;
#X connect 0 0 1 0;
#X connect 0 0 3 0;
#X connect 0 0 5 0;
#X connect 0 0 11 0;
#X connect 1 0 2 0;
#X connect 3 0 4 0;
#X connect 5 0 7 0;
#X connect 5 0 6 0;
#X connect 11 0 8 0;
#X connect 11 0 9 0;
#X connect 11 0 10 0;
#X restore 224 89 pd SoundValuesInit;
#X msg 384 379 \; pd dsp 1;
#X obj 385 320 delay 1500 1 msec;
#X obj 120 172 delay 500 1 msec;
#X obj 236 231 delay 1000 1 msec;
#X msg 265 305 \; pd dsp 0;
#X obj 285 505 route 0;
#N canvas 2 151 450 373 soundReset 0;
#X obj 193 41 inlet;
#X obj 174 93 trigger b b;
#X obj 139 152 delay 500 1 msec;
#X obj 255 211 delay 1000 1 msec;
#X msg 138 211 \; pd dsp 0;
#X msg 284 285 \; pd dsp 1;
#X obj 188 68 bng 15 250 50 0 empty empty empty 17 7 0 10 -262144 -1
-1;
#X connect 0 0 6 0;
#X connect 1 0 2 0;
#X connect 1 1 3 0;
#X connect 2 0 4 0;
#X connect 3 0 5 0;
#X connect 6 0 1 0;
#X restore 279 555 pd soundReset;
#N canvas -274 197 1099 943 kick 0;
#X obj 163 229 line~;
#X obj 163 263 sqrt~;
#X obj 163 331 -~ 0.25;
#X obj 163 363 cos~;
#X obj 163 299 *~ 20;
#X msg 166 185 0 \, 1 200;
#X obj 229 135 bng 15 250 50 0 empty empty empty 17 7 0 10 -262144
-1 -1;
#X obj 261 136 bng 15 250 50 0 empty empty empty 17 7 0 10 -262144
-1 -1;
#X obj 290 138 bng 15 250 50 0 empty empty empty 17 7 0 10 -262144
-1 -1;
#X obj 38 8 receive kickSound;
#X obj 92 74 unpack;
#X floatatom 25 115 5 0 0 2 kick_level - kickLevel;
#X obj 186 392 *~;
#X floatatom 244 335 5 0 0 2 vol2 vol2 -;
#X floatatom 92 331 5 0 0 2 Ch_2_FX_ fxm2 -;
#X obj 73 394 *~;
#X obj 85 429 throw~ ch2FX;
#X obj 187 428 throw~ ch2;
#X obj 234 105 route 2 3 4;
#X obj 220 365 / 127;
#X obj 102 361 / 127;
#X obj 384 231 line~;
#X obj 384 265 sqrt~;
#X obj 384 333 -~ 0.25;
#X obj 384 365 cos~;
#X obj 384 301 *~ 20;
#X msg 387 187 0 \, 1 200;
#X obj 407 394 *~;
#X floatatom 465 337 5 0 0 2 vol3 vol3 -;
#X floatatom 313 333 5 0 0 2 Ch_3_FX_ fxm3 -;
#X obj 294 396 *~;
#X obj 441 367 / 127;
#X obj 323 363 / 127;
#X obj 306 431 throw~ ch3FX;
#X obj 408 430 throw~ ch3;
#X obj 610 229 line~;
#X obj 610 263 sqrt~;
#X obj 610 331 -~ 0.25;
#X obj 610 363 cos~;
#X obj 610 299 *~ 20;
#X msg 613 185 0 \, 1 200;
#X obj 633 392 *~;
#X floatatom 691 335 5 0 0 2 vol4 vol4 -;
#X floatatom 539 331 5 0 0 2 Ch_4_FX_ fxm4 -;
#X obj 520 394 *~;
#X obj 667 365 / 127;
#X obj 549 361 / 127;
#X obj 532 429 throw~ ch4FX;
#X obj 634 428 throw~ ch4;
#X connect 0 0 1 0;
#X connect 1 0 4 0;
#X connect 2 0 3 0;
#X connect 3 0 12 0;
#X connect 3 0 15 0;
#X connect 4 0 2 0;
#X connect 5 0 0 0;
#X connect 9 0 10 0;
#X connect 10 0 11 0;
#X connect 10 1 18 0;
#X connect 12 0 17 0;
#X connect 13 0 19 0;
#X connect 14 0 20 0;
#X connect 15 0 16 0;
#X connect 18 0 6 0;
#X connect 18 0 5 0;
#X connect 18 1 7 0;
#X connect 18 1 26 0;
#X connect 18 2 8 0;
#X connect 18 2 40 0;
#X connect 19 0 12 1;
#X connect 20 0 15 1;
#X connect 21 0 22 0;
#X connect 22 0 25 0;
#X connect 23 0 24 0;
#X connect 24 0 27 0;
#X connect 24 0 30 0;
#X connect 25 0 23 0;
#X connect 26 0 21 0;
#X connect 27 0 34 0;
#X connect 28 0 31 0;
#X connect 29 0 32 0;
#X connect 30 0 33 0;
#X connect 31 0 27 1;
#X connect 32 0 30 1;
#X connect 35 0 36 0;
#X connect 36 0 39 0;
#X connect 37 0 38 0;
#X connect 38 0 41 0;
#X connect 38 0 44 0;
#X connect 39 0 37 0;
#X connect 40 0 35 0;
#X connect 41 0 48 0;
#X connect 42 0 45 0;
#X connect 43 0 46 0;
#X connect 44 0 47 0;
#X connect 45 0 41 1;
#X connect 46 0 44 1;
#X restore 72 418 pd kick;
#N canvas 65 400 1262 669 snare 0;
#X obj 200 213 t b b;
#X msg 200 242 1 \, 0 100;
#X obj 200 271 line~;
#X obj 200 300 pow~ 4;
#X obj 200 329 *~;
#X obj 380 271 line~;
#X obj 380 300 pow~ 4;
#X obj 380 329 *~;
#X msg 380 242 1 \, 0 200;
#X obj 200 358 +~;
#X obj 274 305 osc~ 200;
#X text 274 280 // DRUM;
#X obj 422 145 bng 15 250 50 0 empty empty empty 17 7 0 10 -262144
-1 -1;
#X obj 454 146 bng 15 250 50 0 empty empty empty 17 7 0 10 -262144
-1 -1;
#X obj 483 148 bng 15 250 50 0 empty empty empty 17 7 0 10 -262144
-1 -1;
#X obj 285 84 unpack;
#X floatatom 188 120 5 0 0 2 snare_level - snareLevel;
#X obj 427 115 route 2 3 4;
#X obj 231 18 receive snareSound;
#X obj 221 527 *~;
#X floatatom 279 470 5 0 0 2 vol2 vol2 -;
#X floatatom 127 466 5 0 0 2 Ch_2_FX_ fxm2 -;
#X obj 108 529 *~;
#X obj 120 564 throw~ ch2FX;
#X obj 222 563 throw~ ch2;
#X obj 255 500 / 127;
#X obj 137 496 / 127;
#X obj 186 394 lop~ 4000;
#X obj 568 214 t b b;
#X msg 568 243 1 \, 0 100;
#X obj 568 272 line~;
#X obj 568 301 pow~ 4;
#X obj 568 330 *~;
#X obj 748 272 line~;
#X obj 748 301 pow~ 4;
#X obj 748 330 *~;
#X msg 748 243 1 \, 0 200;
#X obj 568 359 +~;
#X obj 642 306 osc~ 200;
#X text 642 281 // DRUM;
#X obj 589 528 *~;
#X floatatom 647 471 5 0 0 2 vol3 vol3 -;
#X floatatom 495 467 5 0 0 2 Ch_3_FX_ fxm3 -;
#X obj 464 458 *~;
#X obj 623 501 / 127;
#X obj 505 497 / 127;
#X obj 554 395 lop~ 4000;
#X obj 488 565 throw~ ch3FX;
#X obj 590 564 throw~ ch3;
#X obj 902 216 t b b;
#X msg 902 245 1 \, 0 100;
#X obj 902 274 line~;
#X obj 902 303 pow~ 4;
#X obj 902 332 *~;
#X obj 1082 274 line~;
#X obj 1082 303 pow~ 4;
#X obj 1082 332 *~;
#X msg 1082 245 1 \, 0 200;
#X obj 902 361 +~;
#X obj 976 308 osc~ 200;
#X text 976 283 // DRUM;
#X obj 923 530 *~;
#X floatatom 981 473 5 0 0 2 vol4 vol4 -;
#X floatatom 829 469 5 0 0 2 Ch_4_FX_ fxm4 -;
#X obj 798 460 *~;
#X obj 957 503 / 127;
#X obj 839 499 / 127;
#X obj 888 397 lop~ 4000;
#X obj 822 567 throw~ ch4FX;
#X obj 925 565 throw~ ch4;
#X connect 0 0 1 0;
#X connect 0 1 8 0;
#X connect 1 0 2 0;
#X connect 2 0 3 0;
#X connect 3 0 4 0;
#X connect 4 0 9 0;
#X connect 5 0 6 0;
#X connect 6 0 7 0;
#X connect 7 0 9 1;
#X connect 8 0 5 0;
#X connect 9 0 27 0;
#X connect 10 0 4 1;
#X connect 12 0 0 0;
#X connect 13 0 28 0;
#X connect 14 0 49 0;
#X connect 15 0 16 0;
#X connect 15 1 17 0;
#X connect 17 0 12 0;
#X connect 17 1 13 0;
#X connect 17 2 14 0;
#X connect 18 0 15 0;
#X connect 19 0 24 0;
#X connect 20 0 25 0;
#X connect 21 0 26 0;
#X connect 22 0 23 0;
#X connect 25 0 19 1;
#X connect 26 0 22 1;
#X connect 27 0 19 0;
#X connect 27 0 22 0;
#X connect 28 0 29 0;
#X connect 28 1 36 0;
#X connect 29 0 30 0;
#X connect 30 0 31 0;
#X connect 31 0 32 0;
#X connect 32 0 37 0;
#X connect 33 0 34 0;
#X connect 34 0 35 0;
#X connect 35 0 37 1;
#X connect 36 0 33 0;
#X connect 37 0 46 0;
#X connect 38 0 32 1;
#X connect 40 0 48 0;
#X connect 41 0 44 0;
#X connect 42 0 45 0;
#X connect 43 0 47 0;
#X connect 44 0 40 1;
#X connect 45 0 43 1;
#X connect 46 0 40 0;
#X connect 46 0 43 0;
#X connect 49 0 50 0;
#X connect 49 1 57 0;
#X connect 50 0 51 0;
#X connect 51 0 52 0;
#X connect 52 0 53 0;
#X connect 53 0 58 0;
#X connect 54 0 55 0;
#X connect 55 0 56 0;
#X connect 56 0 58 1;
#X connect 57 0 54 0;
#X connect 58 0 67 0;
#X connect 59 0 53 1;
#X connect 61 0 69 0;
#X connect 62 0 65 0;
#X connect 63 0 66 0;
#X connect 64 0 68 0;
#X connect 65 0 61 1;
#X connect 66 0 64 1;
#X connect 67 0 61 0;
#X connect 67 0 64 0;
#X restore 70 460 pd snare;
#N canvas 205 150 1266 808 tomTom 0;
#X msg 606 230 0 \, 1 200;
#X obj 606 259 line~;
#X text 703 243 <- Ramp Generator;
#X obj 606 367 -~ 0.25;
#X obj 606 396 cos~;
#X obj 606 293 sqrt~;
#X obj 606 430 lop~ 1000;
#X text 680 384 <- Sine Waveshaper;
#X text 666 293 <- Pitch Bend;
#X text 666 327 <- Pitch;
#X text 29 4 –– TOMTOM –––––––––––––
;
#X obj 606 327 *~ 50;
#X obj 232 170 bng 15 250 50 0 empty empty empty 17 7 0 10 -262144
-1 -1;
#X obj 264 171 bng 15 250 50 0 empty empty empty 17 7 0 10 -262144
-1 -1;
#X obj 293 173 bng 15 250 50 0 empty empty empty 17 7 0 10 -262144
-1 -1;
#X obj 95 109 unpack;
#X floatatom 28 150 5 0 0 2 kick_level - kickLevel;
#X obj 189 562 *~;
#X floatatom 247 505 5 0 0 2 vol2 vol2 -;
#X floatatom 95 501 5 0 0 2 Ch_2_FX_ fxm2 -;
#X obj 76 564 *~;
#X obj 88 599 throw~ ch2FX;
#X obj 190 598 throw~ ch2;
#X obj 237 140 route 2 3 4;
#X obj 223 535 / 127;
#X obj 105 531 / 127;
#X obj 410 564 *~;
#X floatatom 468 507 5 0 0 2 vol3 vol3 -;
#X floatatom 316 503 5 0 0 2 Ch_3_FX_ fxm3 -;
#X obj 297 566 *~;
#X obj 444 537 / 127;
#X obj 326 533 / 127;
#X obj 309 601 throw~ ch3FX;
#X obj 411 600 throw~ ch3;
#X obj 636 562 *~;
#X floatatom 694 505 5 0 0 2 vol4 vol4 -;
#X floatatom 542 501 5 0 0 2 Ch_4_FX_ fxm4 -;
#X obj 523 564 *~;
#X obj 670 535 / 127;
#X obj 552 531 / 127;
#X obj 535 599 throw~ ch4FX;
#X obj 637 598 throw~ ch4;
#X obj 41 43 receive tomtomSound;
#X msg 140 222 0 \, 1 200;
#X obj 140 251 line~;
#X obj 140 359 -~ 0.25;
#X obj 140 388 cos~;
#X obj 140 285 sqrt~;
#X obj 140 422 lop~ 1000;
#X text 214 376 <- Sine Waveshaper;
#X text 200 285 <- Pitch Bend;
#X text 200 319 <- Pitch;
#X obj 140 319 *~ 50;
#X msg 353 219 0 \, 1 200;
#X obj 353 248 line~;
#X text 450 232 <- Ramp Generator;
#X obj 353 356 -~ 0.25;
#X obj 353 385 cos~;
#X obj 353 282 sqrt~;
#X obj 353 419 lop~ 1000;
#X text 427 373 <- Sine Waveshaper;
#X text 413 282 <- Pitch Bend;
#X text 413 316 <- Pitch;
#X obj 353 316 *~ 50;
#X connect 0 0 1 0;
#X connect 1 0 5 0;
#X connect 3 0 4 0;
#X connect 4 0 6 0;
#X connect 5 0 11 0;
#X connect 6 0 37 0;
#X connect 6 0 34 0;
#X connect 11 0 3 0;
#X connect 12 0 43 0;
#X connect 13 0 53 0;
#X connect 14 0 0 0;
#X connect 15 0 16 0;
#X connect 15 1 23 0;
#X connect 17 0 22 0;
#X connect 18 0 24 0;
#X connect 19 0 25 0;
#X connect 20 0 21 0;
#X connect 23 0 12 0;
#X connect 23 1 13 0;
#X connect 23 2 14 0;
#X connect 24 0 17 1;
#X connect 25 0 20 1;
#X connect 26 0 33 0;
#X connect 27 0 30 0;
#X connect 28 0 31 0;
#X connect 29 0 32 0;
#X connect 30 0 26 1;
#X connect 31 0 29 1;
#X connect 34 0 41 0;
#X connect 35 0 38 0;
#X connect 36 0 39 0;
#X connect 37 0 40 0;
#X connect 38 0 34 1;
#X connect 39 0 37 1;
#X connect 42 0 15 0;
#X connect 43 0 44 0;
#X connect 44 0 47 0;
#X connect 45 0 46 0;
#X connect 46 0 48 0;
#X connect 47 0 52 0;
#X connect 48 0 20 0;
#X connect 48 0 17 0;
#X connect 52 0 45 0;
#X connect 53 0 54 0;
#X connect 54 0 58 0;
#X connect 56 0 57 0;
#X connect 57 0 59 0;
#X connect 58 0 63 0;
#X connect 59 0 29 1;
#X connect 59 0 26 0;
#X connect 63 0 56 0;
#X restore 67 495 pd tomTom;
#N canvas 155 516 1409 590 ride 0;
#X obj 106 215 soundfiler;
#X obj 106 55 loadbang;
#X obj 132 104 bng 15 250 50 0 empty empty empty 17 7 0 10 -262144
-1 -1;
#N canvas 0 50 450 250 (subpatch) 0;
#X array rideLeft 43054 float 2;
#X coords 0 1 43054 -1 200 140 1;
#X restore 409 22 graph;
#N canvas 0 50 450 250 (subpatch) 0;
#X array rideRight 43054 float 2;
#X coords 0 1 43054 -1 200 140 1;
#X restore 423 191 graph;
#X msg 89 168 read -resize ride.wav rideLeft rideRight;
#X obj 797 211 tabplay~ rideLeft;
#X obj 800 244 tabplay~ rideRight;
#X obj 867 150 bng 15 250 50 0 empty empty empty 17 7 0 10 -262144
-1 -1;
#X obj 899 151 bng 15 250 50 0 empty empty empty 17 7 0 10 -262144
-1 -1;
#X obj 928 153 bng 15 250 50 0 empty empty empty 17 7 0 10 -262144
-1 -1;
#X obj 730 89 unpack;
#X floatatom 663 130 5 0 0 2 ride_level - -;
#X obj 824 407 *~;
#X floatatom 882 350 5 0 0 2 vol2 vol2 -;
#X floatatom 730 346 5 0 0 2 Ch_2_FX_ fxm2 -;
#X obj 711 409 *~;
#X obj 723 444 throw~ ch2FX;
#X obj 825 443 throw~ ch2;
#X obj 872 120 route 2 3 4;
#X obj 858 380 / 127;
#X obj 740 376 / 127;
#X obj 1045 409 *~;
#X floatatom 1103 352 5 0 0 2 vol3 vol3 -;
#X floatatom 951 348 5 0 0 2 Ch_3_FX_ fxm3 -;
#X obj 932 411 *~;
#X obj 1079 382 / 127;
#X obj 961 378 / 127;
#X obj 944 446 throw~ ch3FX;
#X obj 1046 445 throw~ ch3;
#X obj 1271 407 *~;
#X floatatom 1329 350 5 0 0 2 vol4 vol4 -;
#X floatatom 1177 346 5 0 0 2 Ch_4_FX_ fxm4 -;
#X obj 1158 409 *~;
#X obj 1305 380 / 127;
#X obj 1187 376 / 127;
#X obj 1170 444 throw~ ch4FX;
#X obj 1272 443 throw~ ch4;
#X obj 676 23 receive rideSound;
#X obj 1047 222 tabplay~ rideLeft;
#X obj 1051 253 tabplay~ rideRight;
#X obj 1215 219 tabplay~ rideLeft;
#X obj 1219 250 tabplay~ rideRight;
#X connect 1 0 2 0;
#X connect 2 0 5 0;
#X connect 5 0 0 0;
#X connect 6 0 16 0;
#X connect 6 0 13 0;
#X connect 7 0 16 0;
#X connect 7 0 13 0;
#X connect 8 0 6 0;
#X connect 8 0 7 0;
#X connect 9 0 39 0;
#X connect 9 0 40 0;
#X connect 10 0 41 0;
#X connect 10 0 42 0;
#X connect 11 0 12 0;
#X connect 11 1 19 0;
#X connect 13 0 18 0;
#X connect 14 0 20 0;
#X connect 15 0 21 0;
#X connect 16 0 17 0;
#X connect 19 0 8 0;
#X connect 19 1 9 0;
#X connect 19 2 10 0;
#X connect 20 0 13 1;
#X connect 21 0 16 1;
#X connect 22 0 29 0;
#X connect 23 0 26 0;
#X connect 24 0 27 0;
#X connect 25 0 28 0;
#X connect 26 0 22 1;
#X connect 27 0 25 1;
#X connect 30 0 37 0;
#X connect 31 0 34 0;
#X connect 32 0 35 0;
#X connect 33 0 36 0;
#X connect 34 0 30 1;
#X connect 35 0 33 1;
#X connect 38 0 11 0;
#X connect 39 0 25 0;
#X connect 39 0 22 0;
#X connect 40 0 25 0;
#X connect 40 0 22 0;
#X connect 41 0 30 0;
#X connect 42 0 33 0;
#X restore 66 523 pd ride;
#N canvas 272 222 1002 540 splash 0;
#X obj 23 11 receive splashSound;
#X obj 22 109 bng 24 250 50 0 empty empty empty 17 7 0 10 -4034 -1
-1;
#X obj 106 215 soundfiler;
#X obj 106 55 loadbang;
#X obj 132 104 bng 15 250 50 0 empty empty empty 17 7 0 10 -262144
-1 -1;
#X obj 25 258 tabplay~ splashLeft;
#X obj 172 259 tabplay~ splashRight;
#N canvas 0 50 450 250 (subpatch) 0;
#X array splashLeft 47546 float 2;
#X coords 0 1 47546 -1 200 140 1;
#X restore 272 24 graph;
#X msg 89 168 read -resize splash.wav splashLeft splashRight;
#N canvas 0 50 450 250 (subpatch) 0;
#X array splashRight 47546 float 2;
#X coords 0 1 47546 -1 200 140 1;
#X restore 295 235 graph;
#X obj 22 392 throw~ outputSoundStream;
#X obj 867 150 bng 15 250 50 0 empty empty empty 17 7 0 10 -262144
-1 -1;
#X obj 899 151 bng 15 250 50 0 empty empty empty 17 7 0 10 -262144
-1 -1;
#X obj 928 153 bng 15 250 50 0 empty empty empty 17 7 0 10 -262144
-1 -1;
#X obj 730 89 unpack;
#X floatatom 663 130 5 0 0 2 splash_level - -;
#X obj 824 407 *~;
#X floatatom 882 350 5 0 0 2 vol2 vol2 -;
#X floatatom 730 346 5 0 0 2 Ch_2_FX_ fxm2 -;
#X obj 711 409 *~;
#X obj 723 444 throw~ ch2FX;
#X obj 825 443 throw~ ch2;
#X obj 872 120 route 2 3 4;
#X obj 858 380 / 127;
#X obj 740 376 / 127;
#X obj 1045 409 *~;
#X floatatom 1103 352 5 0 0 2 vol3 vol3 -;
#X floatatom 951 348 5 0 0 2 Ch_3_FX_ fxm3 -;
#X obj 932 411 *~;
#X obj 1079 382 / 127;
#X obj 961 378 / 127;
#X obj 944 446 throw~ ch3FX;
#X obj 1046 445 throw~ ch3;
#X obj 1271 407 *~;
#X floatatom 1329 350 5 0 0 2 vol4 vol4 -;
#X floatatom 1177 346 5 0 0 2 Ch_4_FX_ fxm4 -;
#X obj 1158 409 *~;
#X obj 1305 380 / 127;
#X obj 1187 376 / 127;
#X obj 1170 444 throw~ ch4FX;
#X obj 1272 443 throw~ ch4;
#X obj 676 23 receive splashSound;
#X obj 797 211 tabplay~ splashLeft;
#X obj 800 244 tabplay~ splashRight;
#X obj 1047 222 tabplay~ splashLeft;
#X obj 1050 253 tabplay~ splashRight;
#X obj 1215 219 tabplay~ splashLeft;
#X obj 1219 250 tabplay~ splashRight;
#X connect 0 0 1 0;
#X connect 1 0 5 0;
#X connect 1 0 6 0;
#X connect 3 0 4 0;
#X connect 4 0 8 0;
#X connect 5 0 10 0;
#X connect 6 0 10 0;
#X connect 8 0 2 0;
#X connect 11 0 42 0;
#X connect 11 0 43 0;
#X connect 12 0 44 0;
#X connect 12 0 45 0;
#X connect 13 0 46 0;
#X connect 13 0 47 0;
#X connect 14 0 15 0;
#X connect 14 1 22 0;
#X connect 16 0 21 0;
#X connect 17 0 23 0;
#X connect 18 0 24 0;
#X connect 19 0 20 0;
#X connect 22 0 11 0;
#X connect 22 1 12 0;
#X connect 22 2 13 0;
#X connect 23 0 16 1;
#X connect 24 0 19 1;
#X connect 25 0 32 0;
#X connect 26 0 29 0;
#X connect 27 0 30 0;
#X connect 28 0 31 0;
#X connect 29 0 25 1;
#X connect 30 0 28 1;
#X connect 33 0 40 0;
#X connect 34 0 37 0;
#X connect 35 0 38 0;
#X connect 36 0 39 0;
#X connect 37 0 33 1;
#X connect 38 0 36 1;
#X connect 41 0 14 0;
#X connect 42 0 19 0;
#X connect 42 0 16 0;
#X connect 43 0 19 0;
#X connect 43 0 16 0;
#X connect 44 0 28 0;
#X connect 44 0 25 0;
#X connect 45 0 28 0;
#X connect 45 0 25 0;
#X connect 46 0 33 0;
#X connect 47 0 36 0;
#X restore 65 552 pd splash;
#N canvas 67 170 1483 671 clap 0;
#X obj 22 109 bng 24 250 50 0 empty empty empty 17 7 0 10 -4034 -1
-1;
#X obj 95 158 soundfiler;
#X obj 106 55 loadbang;
#X obj 102 91 bng 15 250 50 0 empty empty empty 17 7 0 10 -262144 -1
-1;
#N canvas 0 50 450 250 (subpatch) 0;
#X array clapLeft 11936 float 2;
#X coords 0 1 11936 -1 200 140 1;
#X restore 396 21 graph;
#N canvas 0 50 450 250 (subpatch) 0;
#X array clapRight 11936 float 2;
#X coords 0 1 11936 -1 200 140 1;
#X restore 396 191 graph;
#X msg 95 130 read -resize clap.wav clapLeft clapRight;
#X obj 25 258 tabplay~ clapLeft;
#X obj 172 259 tabplay~ clapRight;
#X obj 22 392 throw~ outputSoundStream;
#X obj 19 19 receive clapSound;
#X obj 869 150 bng 15 250 50 0 empty empty empty 17 7 0 10 -262144
-1 -1;
#X obj 899 151 bng 15 250 50 0 empty empty empty 17 7 0 10 -262144
-1 -1;
#X obj 928 153 bng 15 250 50 0 empty empty empty 17 7 0 10 -262144
-1 -1;
#X obj 730 89 unpack;
#X floatatom 663 130 5 0 0 2 clap_level - -;
#X obj 824 407 *~;
#X floatatom 882 350 5 0 0 2 vol2 vol2 -;
#X floatatom 730 346 5 0 0 2 Ch_2_FX_ fxm2 -;
#X obj 711 409 *~;
#X obj 723 444 throw~ ch2FX;
#X obj 825 443 throw~ ch2;
#X obj 872 120 route 2 3 4;
#X obj 858 380 / 127;
#X obj 740 376 / 127;
#X obj 1045 409 *~;
#X floatatom 1103 352 5 0 0 2 vol3 vol3 -;
#X floatatom 951 348 5 0 0 2 Ch_3_FX_ fxm3 -;
#X obj 932 411 *~;
#X obj 1079 382 / 127;
#X obj 961 378 / 127;
#X obj 944 446 throw~ ch3FX;
#X obj 1046 445 throw~ ch3;
#X obj 1271 407 *~;
#X floatatom 1329 350 5 0 0 2 vol4 vol4 -;
#X floatatom 1177 346 5 0 0 2 Ch_4_FX_ fxm4 -;
#X obj 1158 409 *~;
#X obj 1305 380 / 127;
#X obj 1187 376 / 127;
#X obj 1170 444 throw~ ch4FX;
#X obj 1272 443 throw~ ch4;
#X obj 676 23 receive clapSound;
#X obj 797 211 tabplay~ clapLeft;
#X obj 800 244 tabplay~ clapRight;
#X obj 1047 222 tabplay~ clapLeft;
#X obj 1051 253 tabplay~ clapRight;
#X obj 1215 219 tabplay~ clapLeft;
#X obj 1219 250 tabplay~ clapRight;
#X connect 0 0 7 0;
#X connect 0 0 8 0;
#X connect 2 0 3 0;
#X connect 3 0 6 0;
#X connect 6 0 1 0;
#X connect 7 0 9 0;
#X connect 8 0 9 0;
#X connect 10 0 0 0;
#X connect 11 0 42 0;
#X connect 11 0 43 0;
#X connect 12 0 44 0;
#X connect 12 0 45 0;
#X connect 13 0 46 0;
#X connect 13 0 47 0;
#X connect 14 0 15 0;
#X connect 14 1 22 0;
#X connect 16 0 21 0;
#X connect 17 0 23 0;
#X connect 18 0 24 0;
#X connect 19 0 20 0;
#X connect 22 0 11 0;
#X connect 22 1 12 0;
#X connect 22 2 13 0;
#X connect 23 0 16 1;
#X connect 24 0 19 1;
#X connect 25 0 32 0;
#X connect 26 0 29 0;
#X connect 27 0 30 0;
#X connect 28 0 31 0;
#X connect 29 0 25 1;
#X connect 30 0 28 1;
#X connect 33 0 40 0;
#X connect 34 0 37 0;
#X connect 35 0 38 0;
#X connect 36 0 39 0;
#X connect 37 0 33 1;
#X connect 38 0 36 1;
#X connect 41 0 14 0;
#X connect 42 0 19 0;
#X connect 42 0 16 0;
#X connect 43 0 19 0;
#X connect 43 0 16 0;
#X connect 44 0 28 0;
#X connect 44 0 25 0;
#X connect 45 0 28 0;
#X connect 45 0 25 0;
#X connect 46 0 33 0;
#X connect 47 0 36 0;
#X restore 65 584 pd clap;
#N canvas 169 200 1504 670 cowbell 0;
#X obj 22 109 bng 24 250 50 0 empty empty empty 17 7 0 10 -4034 -1
-1;
#X obj 97 131 soundfiler;
#X obj 108 28 loadbang;
#X obj 104 64 bng 15 250 50 0 empty empty empty 17 7 0 10 -262144 -1
-1;
#X msg 97 103 read -resize cowbell.wav cowbellLeft cowbellRight;
#N canvas 0 50 450 250 (subpatch) 0;
#X array cowbellLeft 6520 float 2;
#X coords 0 1 6520 -1 200 140 1;
#X restore 473 17 graph;
#N canvas 0 50 450 250 (subpatch) 0;
#X array cowbellRight 6520 float 2;
#X coords 0 1 6520 -1 200 140 1;
#X restore 473 202 graph;
#X obj 25 258 tabplay~ cowbellLeft;
#X obj 225 259 tabplay~ cowbellRight;
#X obj 22 392 throw~ outputSoundStream;
#X obj 26 13 receive cowbellSound;
#X obj 952 152 bng 15 250 50 0 empty empty empty 17 7 0 10 -262144
-1 -1;
#X obj 984 153 bng 15 250 50 0 empty empty empty 17 7 0 10 -262144
-1 -1;
#X obj 1013 155 bng 15 250 50 0 empty empty empty 17 7 0 10 -262144
-1 -1;
#X obj 815 91 unpack;
#X floatatom 748 132 5 0 0 2 ride_level - -;
#X obj 909 409 *~;
#X floatatom 967 352 5 0 0 2 vol2 vol2 -;
#X floatatom 815 348 5 0 0 2 Ch_2_FX_ fxm2 -;
#X obj 796 411 *~;
#X obj 808 446 throw~ ch2FX;
#X obj 910 445 throw~ ch2;
#X obj 957 122 route 2 3 4;
#X obj 943 382 / 127;
#X obj 825 378 / 127;
#X obj 1130 411 *~;
#X floatatom 1188 354 5 0 0 2 vol3 vol3 -;
#X floatatom 1036 350 5 0 0 2 Ch_3_FX_ fxm3 -;
#X obj 1017 413 *~;
#X obj 1164 384 / 127;
#X obj 1046 380 / 127;
#X obj 1029 448 throw~ ch3FX;
#X obj 1131 447 throw~ ch3;
#X obj 1356 409 *~;
#X floatatom 1414 352 5 0 0 2 vol4 vol4 -;
#X floatatom 1262 348 5 0 0 2 Ch_4_FX_ fxm4 -;
#X obj 1243 411 *~;
#X obj 1390 382 / 127;
#X obj 1272 378 / 127;
#X obj 1255 446 throw~ ch4FX;
#X obj 1357 445 throw~ ch4;
#X obj 761 25 receive cowbellSound;
#X obj 882 212 tabplay~ cowbellLeft;
#X obj 885 246 tabplay~ cowbellRight;
#X obj 1133 224 tabplay~ cowbellLeft;
#X obj 1136 255 tabplay~ cowbellRight;
#X obj 1300 221 tabplay~ cowbellLeft;
#X obj 1304 252 tabplay~ cowbellRight;
#X connect 0 0 7 0;
#X connect 0 0 8 0;
#X connect 2 0 3 0;
#X connect 3 0 4 0;
#X connect 4 0 1 0;
#X connect 7 0 9 0;
#X connect 8 0 9 0;
#X connect 10 0 0 0;
#X connect 11 0 42 0;
#X connect 11 0 43 0;
#X connect 12 0 44 0;
#X connect 12 0 45 0;
#X connect 13 0 46 0;
#X connect 13 0 47 0;
#X connect 14 0 15 0;
#X connect 14 1 22 0;
#X connect 16 0 21 0;
#X connect 17 0 23 0;
#X connect 18 0 24 0;
#X connect 19 0 20 0;
#X connect 22 0 11 0;
#X connect 22 1 12 0;
#X connect 22 2 13 0;
#X connect 23 0 16 1;
#X connect 24 0 19 1;
#X connect 25 0 32 0;
#X connect 26 0 29 0;
#X connect 27 0 30 0;
#X connect 28 0 31 0;
#X connect 29 0 25 1;
#X connect 30 0 28 1;
#X connect 33 0 40 0;
#X connect 34 0 37 0;
#X connect 35 0 38 0;
#X connect 36 0 39 0;
#X connect 37 0 33 1;
#X connect 38 0 36 1;
#X connect 41 0 14 0;
#X connect 42 0 19 0;
#X connect 42 0 16 0;
#X connect 43 0 19 0;
#X connect 43 0 16 0;
#X connect 44 0 28 0;
#X connect 44 0 25 0;
#X connect 45 0 28 0;
#X connect 45 0 25 0;
#X connect 46 0 33 0;
#X connect 47 0 36 0;
#X restore 65 620 pd cowbell;
#X obj 945 254 throw~ masterL;
#X obj 1069 252 throw~ masterR;
#X obj 880 465 catch~ masterL;
#X obj 1024 466 catch~ masterR;
#X obj 914 511 *~ 0.1;
#X obj 1030 507 *~ 0.1;
#X floatatom 783 450 5 0 0 0 - outputVolume -;
#X text 747 435 output volume;
#X obj 785 494 / 127;
#X obj 894 566 *~;
#X obj 1032 573 *~;
#X obj 787 521 pow 2;
#X obj 985 135 rev2~ 100 100 3000 20;
#X floatatom 1060 26 5 0 0 2 reverbLiveliness reverbLiveliness -;
#X obj 1062 62 / 1.27;
#X floatatom 1206 22 5 0 0 2 reverbCrossover reverbCrossover -;
#X obj 1135 61 * 30;
#X floatatom 1105 108 5 0 0 0 - - -;
#X floatatom 925 22 5 0 0 2 Reverb_level reverbLevel -;
#X floatatom 1276 79 5 0 0 2 reverbDamp reverbDamp -;
#X obj 770 33 catch~ ch2FX;
#X obj 660 78 catch~ ch3FX;
#X obj 968 349 catch~ ch1;
#X obj 1078 355 catch~ ch2;
#X obj 971 396 catch~ ch3;
#X obj 1078 393 catch~ ch4;
#X obj 770 77 catch~ ch4FX;
#X obj 667 34 catch~ ch1FX;
#X obj 954 59 / 1.27;
#X obj 1176 101 / 1.27;
#X connect 0 0 2 0;
#X connect 2 0 5 0;
#X connect 2 0 6 0;
#X connect 2 0 9 0;
#X connect 2 0 10 0;
#X connect 2 0 8 0;
#X connect 3 0 12 0;
#X connect 8 0 7 0;
#X connect 9 0 1 0;
#X connect 10 0 11 0;
#X connect 12 0 13 0;
#X connect 23 0 25 0;
#X connect 24 0 26 0;
#X connect 25 0 30 0;
#X connect 26 0 31 0;
#X connect 27 0 29 0;
#X connect 29 0 32 0;
#X connect 30 0 4 0;
#X connect 31 0 4 1;
#X connect 32 0 30 1;
#X connect 32 0 31 1;
#X connect 33 0 21 0;
#X connect 33 1 22 0;
#X connect 34 0 35 0;
#X connect 35 0 33 2;
#X connect 36 0 37 0;
#X connect 37 0 38 0;
#X connect 38 0 33 3;
#X connect 39 0 49 0;
#X connect 40 0 50 0;
#X connect 41 0 33 0;
#X connect 42 0 33 0;
#X connect 43 0 25 0;
#X connect 43 0 26 0;
#X connect 44 0 25 0;
#X connect 44 0 26 0;
#X connect 45 0 25 0;
#X connect 45 0 26 0;
#X connect 46 0 26 0;
#X connect 46 0 25 0;
#X connect 47 0 33 0;
#X connect 48 0 33 0;
#X connect 49 0 33 1;
#X connect 50 0 33 4;
