#N canvas 395 310 1437 1290 12;
#X obj 14 6 inlet;
#X floatatom 17 85 5 0 0 1 MIDI_note_number - -;
#X floatatom 303 86 5 0 0 0 MIDI_velocity - -;
#X obj 15 113 mtof;
#X obj 178 390 *~;
#X obj 14 43 unpack 0 0;
#X obj 335 160 select 0;
#X obj 438 195 / 127;
#X obj 421 258 pack \$1 \$2;
#X obj 489 230 * 6;
#X obj 356 305 line~;
#X obj 303 261 pack 0 \$1;
#X obj 363 228 * 8;
#X obj 15 207 osc~;
#X obj 168 152 phasor~;
#X obj 185 273 *~ \$1;
#X obj 237 192 / 127;
#X obj 169 182 *~ 2;
#X obj 170 213 -~ 1;
#X floatatom 235 248 5 0 0 0 - - -;
#X obj 75 185 / 127;
#X floatatom 78 249 5 0 0 0 - - -;
#X obj 15 276 *~ \$1;
#X text 51 110 convert note to frequency;
#X text 437 286 note on;
#X text 271 293 note off;
#X obj 76 290 print \$1;
#X obj 369 117 print \$1;
#X obj 235 222 pow 2;
#X obj 73 215 pow 2;
#X obj 272 507 *~;
#X floatatom 340 411 5 0 0 2 vol1 vol1 -;
#X floatatom 85 386 5 0 0 2 Ch_1_FX_ fxm1 -;
#X obj 159 509 *~;
#X obj 324 450 / 127;
#X obj 101 439 / 127;
#X obj 171 544 throw~ ch1FX;
#X obj 273 543 throw~ ch1;
#X obj 311 477 pow 2;
#X obj 183 474 pow 2;
#X floatatom 517 142 5 0 0 2 attack attack -;
#X floatatom 362 200 5 0 0 2 decay decay -;
#X floatatom 238 146 5 0 0 2 phase phase -;
#X floatatom 73 160 5 0 0 2 sine sine -;
#X obj 668 64 loadbang;
#X obj 687 119 80;
#X obj 624 170 send sine;
#X obj 828 170 send vol1;
#X obj 932 165 send fxm1;
#X obj 702 170 send phase;
#X connect 0 0 5 0;
#X connect 1 0 3 0;
#X connect 2 0 6 0;
#X connect 2 0 27 0;
#X connect 3 0 13 0;
#X connect 3 0 14 0;
#X connect 3 0 26 0;
#X connect 4 0 33 0;
#X connect 4 0 30 0;
#X connect 5 0 1 0;
#X connect 5 1 2 0;
#X connect 6 0 11 0;
#X connect 6 1 7 0;
#X connect 7 0 8 0;
#X connect 8 0 10 0;
#X connect 9 0 8 1;
#X connect 10 0 4 1;
#X connect 11 0 10 0;
#X connect 12 0 11 1;
#X connect 13 0 22 0;
#X connect 14 0 17 0;
#X connect 15 0 4 0;
#X connect 16 0 28 0;
#X connect 17 0 18 0;
#X connect 18 0 15 0;
#X connect 19 0 15 1;
#X connect 20 0 29 0;
#X connect 21 0 22 1;
#X connect 22 0 4 0;
#X connect 28 0 19 0;
#X connect 29 0 21 0;
#X connect 30 0 37 0;
#X connect 31 0 34 0;
#X connect 32 0 35 0;
#X connect 33 0 36 0;
#X connect 34 0 38 0;
#X connect 35 0 39 0;
#X connect 38 0 30 1;
#X connect 39 0 33 1;
#X connect 40 0 9 0;
#X connect 41 0 12 0;
#X connect 42 0 16 0;
#X connect 43 0 20 0;
#X connect 44 0 45 0;
#X connect 45 0 46 0;
#X connect 45 0 47 0;
#X connect 45 0 48 0;
#X connect 45 0 49 0;
